<?xml version="1.0" standalone="no"?><!DOCTYPE svg PUBLIC "-//W3C//DTD SVG 1.1//EN" "http://www.w3.org/Graphics/SVG/1.1/DTD/svg11.dtd"><svg t="1631973281054" class="icon" viewBox="0 0 1024 1024" version="1.1" xmlns="http://www.w3.org/2000/svg" p-id="15360" xmlns:xlink="http://www.w3.org/1999/xlink" width="48" height="48"><defs><style type="text/css"></style></defs><path d="M957.6 416.4c0 39.6-32.2 72-72 72-39.6 0-72-32.2-72-72 0-39.6 32.2-72 72-72 39.6 0 72 32.4 72 72zM885.2 278c-76.2 0-138 61.4-138.8 137.4l-86.4 124c-3.6-0.4-7.2-0.6-10.8-0.6-19.4 0-37.4 5.4-52.8 14.6L204.8 396c-10.2-46.4-51.8-81.4-101.2-81.4C46.6 314.4 0 361.2 0 418.2s46.6 103.6 103.6 103.6c19.4 0 37.4-5.4 52.8-14.6L548 664.4c10.2 46.6 51.6 81.6 101.2 81.6 53.6 0 98-41.2 103-93.4l133-97.2c76.6 0 138.8-62 138.8-138.6S961.8 278 885.2 278z m0 45.8c51.4 0 93 41.8 93 93 0 51.4-41.8 92.8-93 92.8-51.4 0-93-41.6-93-92.8 0-51.4 41.6-93 93-93z m-781.6 18c29.2 0 54.6 16.4 67.4 40.4l-37.8-15.2v0.2c-30.6-11-64.4 4-76.6 34.2-12.2 30.4 1.8 64.6 31.4 77.8v0.2l32.2 12.8c-5.2 1.2-10.8 1.8-16.4 1.8-42.2 0-76.2-34-76.2-76.2-0.2-41.8 33.8-76 76-76z m545.6 224.4c42.2 0 76.2 34 76.2 76.2s-34 76.2-76.2 76.2c-29.4 0-54.8-16.4-67.4-40.6 12.6 5 25 10 37.6 15.2 31 12.4 66.4-2.6 78.8-33.6 12.4-31-2.6-66.2-33.8-78.8l-31.8-12.8c5.6-1 11-1.8 16.6-1.8z" p-id="15361" fill="#ffffff"></path></svg>